<?xml version="1.0" encoding="utf-8"?>
<!-- Generator: Adobe Illustrator 26.2.1, SVG Export Plug-In . SVG Version: 6.00 Build 0)  -->
<svg version="1.1" id="Layer_1" xmlns="http://www.w3.org/2000/svg" xmlns:xlink="http://www.w3.org/1999/xlink" x="0px" y="0px"
	 viewBox="0 0 1250 1250" style="enable-background:new 0 0 1250 1250;" xml:space="preserve">
<style type="text/css">
	.st0{fill:none;stroke:#141414;stroke-width:2;stroke-miterlimit:10;}
	.st1{fill:#141414;}
	.st2{fill:#1450F5;stroke:#141414;stroke-width:2;stroke-miterlimit:10;}
	.st3{fill:none;stroke:#FFFFFF;stroke-miterlimit:10;}
	.st4{fill:#1450F5;stroke:#141414;stroke-width:2;stroke-linejoin:round;stroke-miterlimit:10;}
	.st5{fill:none;stroke:#141414;stroke-width:6;stroke-linejoin:round;stroke-miterlimit:10;}
	.st6{fill:#1450F5;stroke:#141414;stroke-width:2;stroke-linecap:round;stroke-linejoin:round;stroke-miterlimit:10;}
	.st7{fill:none;stroke:#141414;stroke-width:2;stroke-linecap:round;stroke-linejoin:round;stroke-miterlimit:10;}
	.st8{fill:#141414;stroke:#141414;stroke-width:2;stroke-miterlimit:10;}
	.st9{fill:none;stroke:#141414;stroke-width:6;stroke-linecap:round;stroke-linejoin:round;stroke-miterlimit:10;}
	.st10{fill:none;stroke:#141414;stroke-width:6;stroke-miterlimit:10;}
	.st11{fill:none;stroke:#FFEC00;stroke-miterlimit:10;}
	.st12{fill:none;stroke:#141414;stroke-width:6;stroke-linecap:round;stroke-miterlimit:10;}
	.st13{fill:none;}
	.st14{stroke:#141414;stroke-width:2;stroke-miterlimit:10;}
	.st15{fill:#010101;}
	.st16{fill:#010101;stroke:#141414;stroke-width:2;stroke-miterlimit:10;}
	.st17{fill:#FFFFFF;stroke:#141414;stroke-width:2;stroke-miterlimit:10;}
	.st18{fill:none;stroke:#141414;stroke-width:2;stroke-linecap:round;stroke-miterlimit:10;}
	.st19{fill:none;stroke:#141414;stroke-width:2;stroke-linejoin:bevel;stroke-miterlimit:10;}
	.st20{fill:#1450F5;}
	.st21{fill:#FFFFFF;}
	.st22{fill:none;stroke:#141414;stroke-width:3;stroke-linejoin:bevel;stroke-miterlimit:10;}
	.st23{fill:none;stroke:#141414;stroke-width:3;stroke-miterlimit:10;}
	.st24{fill:none;stroke:#141414;stroke-width:3;stroke-linejoin:round;stroke-miterlimit:10;}
</style>
<path class="st0" d="M573.4,618.2v-82.9c0,0-38,11.7-38,82.9"/>
<path class="st0" d="M676.6,618.2v-82.9c0,0,38,11.7,38,82.9"/>
<path class="st0" d="M728.6,636.8c0.1,1.3,0.1,2.5,0.1,3.8c0,57.3-46.4,103.7-103.7,103.7s-103.7-46.4-103.7-103.7
	c0-1.4,0-2.8,0.1-4.2"/>
<path class="st0" d="M562.7,637.4c-3.1,7.7-7.1,13.4-9.8,21.2c-0.8,2.2-1.4,4.7-0.3,6.8c2.2,4.6,9.1,3,13.8,5
	c4.7,2,6.9,7.8,6.1,12.9s5.3,10.7,1.9,14.5c-3.1,3.5-16.7,0.2-18.5,4.5s4.9,8.9,8.8,11.6c11.8,8.3,11.9-4.4,23.9-5.4
	c10.8-0.9,12.4,9.6,15.7,13.1c8.2,8.9,25.4,12.7,25.4,22.6"/>
<path class="st18" d="M643.1,636.5c-3.8,1.2-8.5,2.9-11.2,5.7c-3.5,3.6-4.3,8.9-4.6,13.9c-0.2,4-0.2,8.2,2.1,11.7
	c1,1.5,2.4,2.7,4.1,3.2c7.5,2.5,12.8-7.9,20.1-7.3c2.1,0.2,4.1,1.3,6.3,1.2c3.3-0.1,5.9-3,7.4-5.9c2-4.1,2.9-8.7,2.4-13.2
	c-0.2-2,0.2-7,0.8-9"/>
<path class="st18" d="M723.8,672.2c0.1-2.4-1.8-7.1-3.3-9.3c-0.6-0.9-2-1.7-2.8-2.3c-1.5-1.1-3.5-0.4-5.4-0.5
	c-4.5-0.3-6.8-5.5-10.3-8.4c-0.6-0.5-1.2-0.9-1.8-1.3c-6.9-3.8-15.3,1.4-15.6,9.3c-0.1,2.8-0.4,5.5-0.5,7.8
	c-0.2,5.4-1.2,10.7-1.7,16.1c-0.1,1.5-0.2,3.1,0.1,4.6c0.7,2.9,3,5.1,5.6,6.5c6.8,3.8,16.7,2.6,24.4,1.8"/>
<path class="st18" d="M512.4,618.2c8.8-54.3,55.8-95.7,112.6-95.7c56.7,0,103.8,41.4,112.6,95.7"/>
<path class="st7" d="M639.3,523.3c-4.5-0.5-9.6-0.9-15.4-0.9c-5.8,0-10.9,0.5-15.3,1.2c0-4.7,0-9.3,0-14c0-2.5,2-4.5,4.5-4.5h21.7
	c2.5,0,4.5,2,4.5,4.5V523.3z"/>
<path class="st18" d="M753.5,636.5H496.5c-5.1,0-9.2-4.1-9.2-9.2v0c0-5.1,4.1-9.2,9.2-9.2h256.9c5.1,0,9.2,4.1,9.2,9.2v0
	C762.6,632.4,758.5,636.5,753.5,636.5z"/>
<rect x="585.5" y="565.3" class="st20" width="17.8" height="35.5"/>
<rect x="605.9" y="565.3" class="st20" width="17.8" height="35.5"/>
<rect x="626.3" y="565.3" class="st20" width="17.8" height="35.5"/>
<rect x="646.7" y="565.3" class="st20" width="17.8" height="35.5"/>
</svg>
