<?xml version="1.0" encoding="utf-8"?>
<!-- Generator: Adobe Illustrator 26.2.1, SVG Export Plug-In . SVG Version: 6.00 Build 0)  -->
<svg version="1.1" id="Layer_1" xmlns="http://www.w3.org/2000/svg" xmlns:xlink="http://www.w3.org/1999/xlink" x="0px" y="0px"
	 viewBox="0 0 1250 1250" style="enable-background:new 0 0 1250 1250;" xml:space="preserve">
<style type="text/css">
	.st0{fill:none;stroke:#141414;stroke-width:2;stroke-miterlimit:10;}
	.st1{fill:#141414;}
	.st2{fill:#1450F5;stroke:#141414;stroke-width:2;stroke-miterlimit:10;}
	.st3{fill:none;stroke:#FFFFFF;stroke-miterlimit:10;}
	.st4{fill:#1450F5;stroke:#141414;stroke-width:2;stroke-linejoin:round;stroke-miterlimit:10;}
	.st5{fill:none;stroke:#141414;stroke-width:6;stroke-linejoin:round;stroke-miterlimit:10;}
	.st6{fill:#1450F5;stroke:#141414;stroke-width:2;stroke-linecap:round;stroke-linejoin:round;stroke-miterlimit:10;}
	.st7{fill:none;stroke:#141414;stroke-width:2;stroke-linecap:round;stroke-linejoin:round;stroke-miterlimit:10;}
	.st8{fill:#141414;stroke:#141414;stroke-width:2;stroke-miterlimit:10;}
	.st9{fill:none;stroke:#141414;stroke-width:6;stroke-linecap:round;stroke-linejoin:round;stroke-miterlimit:10;}
	.st10{fill:none;stroke:#141414;stroke-width:6;stroke-miterlimit:10;}
	.st11{fill:none;stroke:#FFEC00;stroke-miterlimit:10;}
	.st12{fill:none;stroke:#141414;stroke-width:6;stroke-linecap:round;stroke-miterlimit:10;}
	.st13{fill:none;}
	.st14{stroke:#141414;stroke-width:2;stroke-miterlimit:10;}
	.st15{fill:#010101;}
	.st16{fill:#010101;stroke:#141414;stroke-width:2;stroke-miterlimit:10;}
	.st17{fill:#FFFFFF;stroke:#141414;stroke-width:2;stroke-miterlimit:10;}
	.st18{fill:none;stroke:#141414;stroke-width:2;stroke-linecap:round;stroke-miterlimit:10;}
	.st19{fill:none;stroke:#141414;stroke-width:2;stroke-linejoin:bevel;stroke-miterlimit:10;}
	.st20{fill:#1450F5;}
	.st21{fill:#FFFFFF;}
	.st22{fill:none;stroke:#141414;stroke-width:3;stroke-linejoin:bevel;stroke-miterlimit:10;}
	.st23{fill:none;stroke:#141414;stroke-width:3;stroke-miterlimit:10;}
	.st24{fill:none;stroke:#141414;stroke-width:3;stroke-linejoin:round;stroke-miterlimit:10;}
</style>
<line class="st10" x1="572.1" y1="550.8" x2="572.1" y2="779.5"/>
<path class="st10" d="M623.6,625c-2.3,9.1-8.1,18.5-16.9,26l-6.1,5.2c-18.5,15.7-28.5,34.7-28.5,54.2v0"/>
<path class="st10" d="M522.2,602.2c3.2,3.5,6.2,7.7,11.2,10.8l6.9,4.2c20.7,12.7,31.8,28,31.8,43.8l0,0"/>
<path class="st2" d="M483.1,541.7c4.7,0.7,14.2,1.4,24.1-0.6c15.1-3.1,25,4.8,39.6,7.2c21.9,3.6,52.1,0.7,84.3-7.2
	s24.5-3.1,49.3-1.8c16.8,0.8,41.3-5,25.7-26.9c-9.2-12.9-30.9-19.2-41.6-27.1c-10.8-8-13.6-20.3-41.6-26.7
	c-22.8-5.2-28.2-30.1-56.3-25.4c-28.1,4.7-31,29.6-41.7,45.5c-10.8,15.9-23.6,14.2-47.3,32.5C467.8,518.7,459.4,537.9,483.1,541.7z"
	/>
<path class="st2" d="M536.7,597.4c-7.9,0-11.7,4.2-19.2,6.8c-9.3,3.2-20.2-0.5-27.3-1.2c-14.3-1.4-21.7,6.7-34.9-7.4
	c-7.1-7.6-4.1-18,11.4-19.9c13.9-1.7,13.5-9.5,23.7-13.6c20-8.1,29.2-4.2,39.1,3.6c9.9,7.7,16.3,9.3,23.2,11s11.3,8.3,8.3,16.2
	C559.2,597.7,550.7,597.4,536.7,597.4z"/>
<path class="st2" d="M680.4,618.7c-9.4,0-18.9,1.3-27.7,4.6c-4.5,1.7-11.2,3.1-19.7,2.3c-17.1-1.7-26.2-0.5-46.7-12
	c-11.1-6.3-5.7-29.9,12.9-32.2c16.6-2.1,15.9-12.5,28.3-17c11.5-4.2,26.7-5,38.6,4.7c11.8,9.6,18.4,14.4,26.8,15.1
	c25.5,2.2,22.7,21.8,15.5,28C703.4,616.3,697.1,618.8,680.4,618.7z"/>
</svg>
