<?xml version="1.0" encoding="utf-8"?>
<!-- Generator: Adobe Illustrator 26.2.1, SVG Export Plug-In . SVG Version: 6.00 Build 0)  -->
<svg version="1.1" id="Layer_1" xmlns="http://www.w3.org/2000/svg" xmlns:xlink="http://www.w3.org/1999/xlink" x="0px" y="0px"
	 viewBox="0 0 1250 1250" style="enable-background:new 0 0 1250 1250;" xml:space="preserve">
<style type="text/css">
	.st0{fill:none;stroke:#141414;stroke-width:2;stroke-miterlimit:10;}
	.st1{fill:#141414;}
	.st2{fill:#1450F5;stroke:#141414;stroke-width:2;stroke-miterlimit:10;}
	.st3{fill:none;stroke:#FFFFFF;stroke-miterlimit:10;}
	.st4{fill:#1450F5;stroke:#141414;stroke-width:2;stroke-linejoin:round;stroke-miterlimit:10;}
	.st5{fill:none;stroke:#141414;stroke-width:6;stroke-linejoin:round;stroke-miterlimit:10;}
	.st6{fill:#1450F5;stroke:#141414;stroke-width:2;stroke-linecap:round;stroke-linejoin:round;stroke-miterlimit:10;}
	.st7{fill:none;stroke:#141414;stroke-width:2;stroke-linecap:round;stroke-linejoin:round;stroke-miterlimit:10;}
	.st8{fill:#141414;stroke:#141414;stroke-width:2;stroke-miterlimit:10;}
	.st9{fill:none;stroke:#141414;stroke-width:6;stroke-linecap:round;stroke-linejoin:round;stroke-miterlimit:10;}
	.st10{fill:none;stroke:#141414;stroke-width:6;stroke-miterlimit:10;}
	.st11{fill:none;stroke:#FFEC00;stroke-miterlimit:10;}
	.st12{fill:none;stroke:#141414;stroke-width:6;stroke-linecap:round;stroke-miterlimit:10;}
	.st13{fill:none;}
	.st14{stroke:#141414;stroke-width:2;stroke-miterlimit:10;}
	.st15{fill:#010101;}
	.st16{fill:#010101;stroke:#141414;stroke-width:2;stroke-miterlimit:10;}
	.st17{fill:#FFFFFF;stroke:#141414;stroke-width:2;stroke-miterlimit:10;}
	.st18{fill:none;stroke:#141414;stroke-width:2;stroke-linecap:round;stroke-miterlimit:10;}
	.st19{fill:none;stroke:#141414;stroke-width:2;stroke-linejoin:bevel;stroke-miterlimit:10;}
	.st20{fill:#1450F5;}
	.st21{fill:#FFFFFF;}
	.st22{fill:none;stroke:#141414;stroke-width:3;stroke-linejoin:bevel;stroke-miterlimit:10;}
	.st23{fill:none;stroke:#141414;stroke-width:3;stroke-miterlimit:10;}
	.st24{fill:none;stroke:#141414;stroke-width:3;stroke-linejoin:round;stroke-miterlimit:10;}
</style>
<g>
	<circle class="st0" cx="444.1" cy="672.5" r="20.4"/>
	<circle class="st2" cx="444.1" cy="672.5" r="13.7"/>
</g>
<g>
	<circle class="st0" cx="494.7" cy="672.5" r="20.4"/>
	<circle class="st2" cx="494.7" cy="672.5" r="13.7"/>
</g>
<g>
	<circle class="st0" cx="693.2" cy="672.5" r="20.4"/>
	<circle class="st2" cx="693.2" cy="672.5" r="13.7"/>
</g>
<path class="st0" d="M713.6,672.5h18.5c3.4,0,6.2-2.8,6.2-6.2v-93.8c0-6.7-5.4-12.1-12.1-12.1H404c-8.7,0-15.7,7-15.7,15.7v90.3
	c0,3.4,2.8,6.2,6.2,6.2h29.7"/>
<line class="st0" x1="515.5" y1="672.5" x2="672.8" y2="672.5"/>
<line class="st0" x1="464.3" y1="672.5" x2="474.3" y2="672.5"/>
<rect x="712.5" y="578.4" transform="matrix(-1 -4.465507e-11 4.465507e-11 -1 1450.8289 1211.3004)" class="st0" width="25.8" height="54.5"/>
<rect x="593.8" y="578.4" transform="matrix(-1 -4.500767e-11 4.500767e-11 -1 1213.4384 1250.9301)" class="st0" width="25.8" height="94.1"/>
<rect x="568" y="578.4" transform="matrix(-1 -4.500767e-11 4.500767e-11 -1 1161.8687 1250.9301)" class="st0" width="25.8" height="94.1"/>
<rect x="640.1" y="578.4" transform="matrix(-1 -4.502721e-11 4.502721e-11 -1 1339.8989 1208.2129)" class="st0" width="59.7" height="51.4"/>
<rect x="486.2" y="578.4" transform="matrix(-1 -4.484469e-11 4.484469e-11 -1 1032.2289 1208.2129)" class="st0" width="59.7" height="51.4"/>
<rect x="406.1" y="578.4" transform="matrix(-1 -4.487534e-11 4.487534e-11 -1 871.9773 1208.2129)" class="st0" width="59.7" height="51.4"/>
</svg>
