<?xml version="1.0" encoding="utf-8"?>
<!-- Generator: Adobe Illustrator 26.2.1, SVG Export Plug-In . SVG Version: 6.00 Build 0)  -->
<svg version="1.1" id="Layer_1" xmlns="http://www.w3.org/2000/svg" xmlns:xlink="http://www.w3.org/1999/xlink" x="0px" y="0px"
	 viewBox="0 0 1250 1250" style="enable-background:new 0 0 1250 1250;" xml:space="preserve">
<style type="text/css">
	.st0{fill:none;stroke:#141414;stroke-width:2;stroke-miterlimit:10;}
	.st1{fill:#141414;}
	.st2{fill:#1450F5;stroke:#141414;stroke-width:2;stroke-miterlimit:10;}
	.st3{fill:none;stroke:#FFFFFF;stroke-miterlimit:10;}
	.st4{fill:#1450F5;stroke:#141414;stroke-width:2;stroke-linejoin:round;stroke-miterlimit:10;}
	.st5{fill:none;stroke:#141414;stroke-width:6;stroke-linejoin:round;stroke-miterlimit:10;}
	.st6{fill:#1450F5;stroke:#141414;stroke-width:2;stroke-linecap:round;stroke-linejoin:round;stroke-miterlimit:10;}
	.st7{fill:none;stroke:#141414;stroke-width:2;stroke-linecap:round;stroke-linejoin:round;stroke-miterlimit:10;}
	.st8{fill:#141414;stroke:#141414;stroke-width:2;stroke-miterlimit:10;}
	.st9{fill:none;stroke:#141414;stroke-width:6;stroke-linecap:round;stroke-linejoin:round;stroke-miterlimit:10;}
	.st10{fill:none;stroke:#141414;stroke-width:6;stroke-miterlimit:10;}
	.st11{fill:none;stroke:#FFEC00;stroke-miterlimit:10;}
	.st12{fill:none;stroke:#141414;stroke-width:6;stroke-linecap:round;stroke-miterlimit:10;}
	.st13{fill:none;}
	.st14{stroke:#141414;stroke-width:2;stroke-miterlimit:10;}
	.st15{fill:#010101;}
	.st16{fill:#010101;stroke:#141414;stroke-width:2;stroke-miterlimit:10;}
	.st17{fill:#FFFFFF;stroke:#141414;stroke-width:2;stroke-miterlimit:10;}
	.st18{fill:none;stroke:#141414;stroke-width:2;stroke-linecap:round;stroke-miterlimit:10;}
	.st19{fill:none;stroke:#141414;stroke-width:2;stroke-linejoin:bevel;stroke-miterlimit:10;}
	.st20{fill:#1450F5;}
	.st21{fill:#FFFFFF;}
	.st22{fill:none;stroke:#141414;stroke-width:3;stroke-linejoin:bevel;stroke-miterlimit:10;}
	.st23{fill:none;stroke:#141414;stroke-width:3;stroke-miterlimit:10;}
	.st24{fill:none;stroke:#141414;stroke-width:3;stroke-linejoin:round;stroke-miterlimit:10;}
</style>
<path class="st8" d="M682.5,671.4c0,0,13.3,20.2,44.8,10.5c0,0,7.6,23.3,22.6,17.1c0,0-7.4-22.6-8.1-26.2s-28.8-2.9-35-36.7
	c0,0-2.2,9.6-10.9,19.9"/>
<path class="st0" d="M536.5,585.3c-5.6-8.3-36.1-4.4-43-8.5c-6.9-4-5.4-16.8-5.4-16.8s5.7,1.3,18.7-5.6
	c10.8-5.8,12.9-22.8,32.7-25.8"/>
<path class="st0" d="M539.4,529.4c0,0-5.1-18.2-4.8-20.9c0.3-2.7,15.6,5.3,24.3,21.4c27,7.4,19.4,40.9,19.4,40.9"/>
<path class="st0" d="M533.8,530.5c0,0-8.7-16.8-8.9-19.5c-0.1-1.4,4.5-0.8,10.7,2.3"/>
<path class="st0" d="M545.4,528.7c0,0-1.5-9.2-4.4-10.9"/>
<path class="st0" d="M707.7,627.2c0.1,24.5-23.2,38.1-25.3,44.1c-2.1,6.2,3.3,15,3.3,15v6.2L672,710.9h-31.9
	c0.7-10.2,23.8-9.8,23.8-9.8s-17.6-14.8-19.8-36c-2.1-21.2,11.4-27.9,11.4-27.9"/>
<path class="st8" d="M558.6,672.5c0,0,12.9,14.8,25.5,19.9s25.8,2,23.3-11l-15.8,2c0,0-15.3-8.4-14.5-21.2l-14-2.4L558.6,672.5"/>
<path class="st0" d="M563.1,659.8c0,0,50,10.1,80.9-2.2"/>
<path class="st0" d="M536.7,603.9c0,0-3.1,19.4,5.9,39.5c6.9,15.4-7.3,51.5-11.4,55c0,0-17.7-0.4-18.5,12.5h26.5
	c0,0,20.8-33.7,26.5-61.5"/>
<path class="st0" d="M720,612c-2.6,4.9-6.2,9.4-10.6,12.7"/>
<path class="st0" d="M583.1,589.2c0,0,4.3,14.2,17.9,15.3c13.6,1.1,77.2-7.8,94.1,5.8c0,0,20-3.1,15.9-18
	c-3.9-13.9-18.6-11.2-23.5-7.1c-1,0.8-2.3,1.3-3.5,1c-1.2-0.3-2.3-1.2-1.5-3.8c1.6-5.1,16.4-16.4,32.3-6.3
	c11.4,7.3,11.8,23.1,5.2,35.8"/>
<path class="st1" d="M524.3,535.7c0,0,17.3-8.3,22.5,2.8c5.2,11.2-4.4,16.7-6.5,20.4c-2.1,3.8,0.4,9.8-9,10.1
	c-9.4,0.3-26.4-10.8-20.2-17.8C514.7,547.1,524.3,535.7,524.3,535.7z"/>
<path class="st1" d="M612.1,604.4c0,0-8.1,2.8-10.1,8.1c-4.1,11.1,6.6,18.2,18.5,16.3s17.4-11.5,25.6-10.5s16.9-0.8,19.3-4.6
	c1-1.6,1.2-3.7,1.1-5.6c-0.2-2.9-2.5-5.2-5.4-5.4C651.3,601.9,627.6,600.7,612.1,604.4z"/>
<path class="st1" d="M488.5,566.5c1.8-0.2,5.2-1.2,5-6.3c0-0.5-0.4-0.9-0.9-0.8l-4,0.1c-0.5,0-0.9,0.4-0.9,0.9l-0.1,5.3
	C487.5,566.1,487.9,566.6,488.5,566.5z"/>
<line class="st12" x1="533.9" y1="594.6" x2="579.6" y2="581.3"/>
</svg>
