<?xml version="1.0" encoding="utf-8"?>
<!-- Generator: Adobe Illustrator 26.2.1, SVG Export Plug-In . SVG Version: 6.00 Build 0)  -->
<svg version="1.1" id="Layer_1" xmlns="http://www.w3.org/2000/svg" xmlns:xlink="http://www.w3.org/1999/xlink" x="0px" y="0px"
	 viewBox="0 0 1250 1250" style="enable-background:new 0 0 1250 1250;" xml:space="preserve">
<style type="text/css">
	.st0{fill:none;stroke:#141414;stroke-width:2;stroke-miterlimit:10;}
	.st1{fill:#141414;}
	.st2{fill:#1450F5;stroke:#141414;stroke-width:2;stroke-miterlimit:10;}
	.st3{fill:none;stroke:#FFFFFF;stroke-miterlimit:10;}
	.st4{fill:#1450F5;stroke:#141414;stroke-width:2;stroke-linejoin:round;stroke-miterlimit:10;}
	.st5{fill:none;stroke:#141414;stroke-width:6;stroke-linejoin:round;stroke-miterlimit:10;}
	.st6{fill:#1450F5;stroke:#141414;stroke-width:2;stroke-linecap:round;stroke-linejoin:round;stroke-miterlimit:10;}
	.st7{fill:none;stroke:#141414;stroke-width:2;stroke-linecap:round;stroke-linejoin:round;stroke-miterlimit:10;}
	.st8{fill:#141414;stroke:#141414;stroke-width:2;stroke-miterlimit:10;}
	.st9{fill:none;stroke:#141414;stroke-width:6;stroke-linecap:round;stroke-linejoin:round;stroke-miterlimit:10;}
	.st10{fill:none;stroke:#141414;stroke-width:6;stroke-miterlimit:10;}
	.st11{fill:none;stroke:#FFEC00;stroke-miterlimit:10;}
	.st12{fill:none;stroke:#141414;stroke-width:6;stroke-linecap:round;stroke-miterlimit:10;}
	.st13{fill:none;}
	.st14{stroke:#141414;stroke-width:2;stroke-miterlimit:10;}
	.st15{fill:#010101;}
	.st16{fill:#010101;stroke:#141414;stroke-width:2;stroke-miterlimit:10;}
	.st17{fill:#FFFFFF;stroke:#141414;stroke-width:2;stroke-miterlimit:10;}
	.st18{fill:none;stroke:#141414;stroke-width:2;stroke-linecap:round;stroke-miterlimit:10;}
	.st19{fill:none;stroke:#141414;stroke-width:2;stroke-linejoin:bevel;stroke-miterlimit:10;}
	.st20{fill:#1450F5;}
	.st21{fill:#FFFFFF;}
	.st22{fill:none;stroke:#141414;stroke-width:3;stroke-linejoin:bevel;stroke-miterlimit:10;}
	.st23{fill:none;stroke:#141414;stroke-width:3;stroke-miterlimit:10;}
	.st24{fill:none;stroke:#141414;stroke-width:3;stroke-linejoin:round;stroke-miterlimit:10;}
</style>
<path class="st2" d="M527.2,678.1c-0.3-12.1,6.3-19.5,3.7-28c-3.7-12-12.4-10.5-18.6-19.8c-7.5-11.1-4.2-23.6,4-34.3
	c2.1-2.8,4.8-5.2,6.3-8.4c1.1-2.5,1.5-5.2,1.9-7.9c1.2-9.5,2.5-19.1,3.7-28.6c1-7.3,1.9-14.8,4.9-21.5c3-6.7,8.4-12.8,15.5-14.8
	c7.9-2.3,17.2,1.3,21.5,8.3c6.6,10.8,1.2,24.7,2,37.3c1.3,19.8,23.3,20.5,18.8,56c-2.8,22.1-14.7,15.3-10.5,49.8
	C585.7,712.1,527.7,702.1,527.2,678.1z"/>
<path class="st2" d="M631.8,629.4c-3.3-12.3,3.7-25.1,2.7-37.7c-0.5-6-2.7-11.7-4.9-17.3c-4-10.1-7.9-21.1-5.1-31.6
	c5.2-19.7,30.7-28.1,36.8-47.5c4.9-15.9-5.1-33.3-1-49.4c2.4-9.6,10.6-17.9,20.5-19.2c9.9-1.3,20.5,5.7,22.1,15.5
	c1,6.2-1.2,12.7,0.6,18.7c1,3.4,3.3,6.2,5.5,9c8,10.2,15.5,20.8,20,32.9c4.5,12.1,5.6,25.9,0.7,37.8c-1.9,4.5-4.6,8.8-5.5,13.6
	c-1.3,7.4,1.9,14.8,4.8,21.7c5.8,13.8,10.8,29.1,6.7,43.4c-5.1,17.7-22.7,29-40.4,34.1c-8.5,2.4-17.4,3.8-26,2.4
	C660.7,654.4,636.9,650,631.8,629.4L631.8,629.4z"/>
<line class="st5" x1="554.8" y1="698.6" x2="554.8" y2="823.6"/>
<line class="st5" x1="676.6" y1="656.3" x2="676.6" y2="818.8"/>
</svg>
