<?xml version="1.0" encoding="utf-8"?>
<!-- Generator: Adobe Illustrator 26.2.1, SVG Export Plug-In . SVG Version: 6.00 Build 0)  -->
<svg version="1.1" id="Layer_1" xmlns="http://www.w3.org/2000/svg" xmlns:xlink="http://www.w3.org/1999/xlink" x="0px" y="0px"
	 viewBox="0 0 1250 1250" style="enable-background:new 0 0 1250 1250;" xml:space="preserve">
<style type="text/css">
	.st0{fill:none;stroke:#141414;stroke-width:2;stroke-miterlimit:10;}
	.st1{fill:#141414;}
	.st2{fill:#1450F5;stroke:#141414;stroke-width:2;stroke-miterlimit:10;}
	.st3{fill:none;stroke:#FFFFFF;stroke-miterlimit:10;}
	.st4{fill:#1450F5;stroke:#141414;stroke-width:2;stroke-linejoin:round;stroke-miterlimit:10;}
	.st5{fill:none;stroke:#141414;stroke-width:6;stroke-linejoin:round;stroke-miterlimit:10;}
	.st6{fill:#1450F5;stroke:#141414;stroke-width:2;stroke-linecap:round;stroke-linejoin:round;stroke-miterlimit:10;}
	.st7{fill:none;stroke:#141414;stroke-width:2;stroke-linecap:round;stroke-linejoin:round;stroke-miterlimit:10;}
	.st8{fill:#141414;stroke:#141414;stroke-width:2;stroke-miterlimit:10;}
	.st9{fill:none;stroke:#141414;stroke-width:6;stroke-linecap:round;stroke-linejoin:round;stroke-miterlimit:10;}
	.st10{fill:none;stroke:#141414;stroke-width:6;stroke-miterlimit:10;}
	.st11{fill:none;stroke:#FFEC00;stroke-miterlimit:10;}
	.st12{fill:none;stroke:#141414;stroke-width:6;stroke-linecap:round;stroke-miterlimit:10;}
	.st13{fill:none;}
	.st14{stroke:#141414;stroke-width:2;stroke-miterlimit:10;}
	.st15{fill:#010101;}
	.st16{fill:#010101;stroke:#141414;stroke-width:2;stroke-miterlimit:10;}
	.st17{fill:#FFFFFF;stroke:#141414;stroke-width:2;stroke-miterlimit:10;}
	.st18{fill:none;stroke:#141414;stroke-width:2;stroke-linecap:round;stroke-miterlimit:10;}
	.st19{fill:none;stroke:#141414;stroke-width:2;stroke-linejoin:bevel;stroke-miterlimit:10;}
	.st20{fill:#1450F5;}
	.st21{fill:#FFFFFF;}
	.st22{fill:none;stroke:#141414;stroke-width:3;stroke-linejoin:bevel;stroke-miterlimit:10;}
	.st23{fill:none;stroke:#141414;stroke-width:3;stroke-miterlimit:10;}
	.st24{fill:none;stroke:#141414;stroke-width:3;stroke-linejoin:round;stroke-miterlimit:10;}
</style>
<circle class="st0" cx="498.4" cy="723.4" r="71.3"/>
<circle class="st0" cx="751.6" cy="723.4" r="71.3"/>
<path class="st0" d="M613,506.1c-0.3-2.9-2.7-5.4-5.5-6c-3.7-0.7-7.4,1.7-11.2,1.3c-2.9-0.3-5.4-2.4-6.9-4.9
	c-1.5-2.5-2.1-5.5-2.4-8.4c-0.5-4.4-0.3-8.9,1.1-13.1c1-2.8,2.6-5.5,4.8-7.6"/>
<path class="st0" d="M554,579.9c-4.6-0.2-10.4,0.5-14.5,2.9s-7.1,6.5-7.5,11.1"/>
<circle class="st1" cx="534.8" cy="591.9" r="5"/>
<path class="st0" d="M673.5,556.1c-3.6-11-7.2-22.3-14.1-31.6s-16.9-15.8-26.5-16.4c-9.6-0.6-17.5,1.7-23.4,8
	c-9.3,9.9-9.8,25.2-16.9,36.7c-8.3,13.5-24.3,19.9-39.4,24.9c1.9,4.3,2.1,13.4,2.1,13.4c15.5,0.1,31.2,0,44.7-7.6
	c9.6-5.4,17-14.4,22.1-24.1s8.4-20.5,11.3-31.1"/>
<line class="st5" x1="498.5" y1="723.5" x2="562.2" y2="626.8"/>
<polyline class="st5" points="588,671.5 562.2,626.9 605.8,626.9 "/>
<polyline class="st5" points="751.5,723.5 692.4,631.8 692.4,631.8 643.8,708.4 "/>
<line class="st5" x1="561.4" y1="604.4" x2="561.4" y2="626.9"/>
<path class="st7" d="M649.9,608.5c-12.7-12.2-21.1-27.6-30-45.6"/>
<path class="st0" d="M630.8,731.8c-0.1,5.4-0.6,14.2-0.7,19.6c0,0.7-0.1,1.6-0.7,2c-0.5,0.3-1.1,0.3-1.7,0.3
	c-12.8-0.8-37.3,1.8-50.2,0.9c-1.2-0.1-2.6-0.2-3.2-1.2c-0.8-1.2-0.1-2.9,1-3.7c1.2-0.8,2.6-0.9,4-1.1c7.2-0.8,26.5-11.1,32.2-16.1"
	/>
<path class="st0" d="M667.1,600.6c-39,15.8-68.1,42.9-69.7,47c-4.8,12.7,10.5,71.6,14.1,84.7c2.7,0.4,12.8,2.3,19.1,1.1
	c2.1-19,0.9-29.5,0.9-45.2c0-8.9,0-27.6,0-27.6c7.4-4.5,60.7-30.2,66.7-39.2s4.7-18,0.5-27.5c-5.5-12.5-17.3-18.2-25.3-37.9"/>
<path class="st1" d="M677.6,636c4.4,1.7,9.9,2.5,17.1,2.5c13.3,0,24-3.7,24-8.3s-7.8-8.2-21-8.2"/>
<g>
	<path class="st1" d="M628.5,493.3c0.3-0.6,0.6-1.3,1-1.9c-2.3,0.3-4.9,0.3-7.3-0.8c0,0,1.9-10.5-3-13.6c-3.9-2.7-10.1-3.2-14.1,0.6
		c0-0.1-7.1-5.7-12.4-9.5c0.2,4.9,3.6,7.4,6,8.6c3.6,1.8,7.9,0.8,10.5,1.1c2.6,0.3,5.6,2,5.3,4.6c-0.2,2.5-3.2,3.7-5.7,4.3
		c3.9,8.1,11.3,14.4,19.9,16.9l-0.2-1.1C626.7,499.9,627.2,496.2,628.5,493.3z"/>
</g>
<polyline class="st24" points="605,476.2 607,501.2 623.2,489.8 "/>
<path class="st1" d="M638.8,482.5c-0.9,2.5-2.2,5-3.7,7.3c0,0-7,3.3-12.9,0.8c0,0,0.3-1.5,0.4-3.6c-2.3,1.9-3.6,4.1-3.6,6.6
	c0,6.2,8.3,11.2,18.4,11.2s18.4-5,18.4-11.2C655.8,487.8,648.3,483,638.8,482.5z"/>
<g>
	<path class="st20" d="M627.2,490.6c-1.4,0-2.7-0.2-3.9-0.6c0.4-2.7,1.1-10.9-3.6-13.8c-2.1-1.4-4.8-2.3-7.5-2.3
		c-2.7,0-5.2,0.8-7.2,2.4c-1-0.8-3-2.3-6.9-5.1c-2.8-2-7.9-5.7-11.5-8c1.7-3,9.1-14.1,23.4-14.1c4.5,0,9.3,1.1,14.3,3.2
		c10,4.4,15.7,12.1,15.4,21.1c-0.2,4.9-2.3,10.8-5.5,15.6C633.5,489.4,630.5,490.6,627.2,490.6z"/>
	<path class="st1" d="M610.1,448.1v2c4.3,0,9,1,13.9,3.1c13.2,5.8,15,15.2,14.9,20.1c-0.2,4.7-2.1,10.2-5.1,14.9
		c-1.1,0.4-3.7,1.3-6.6,1.3c-1,0-1.9-0.1-2.8-0.3c0.1-1.1,0.2-2.7,0.1-4.4c-0.2-4.7-1.6-7.9-4.2-9.5c-2.3-1.6-5.1-2.5-8-2.5
		c-2.6,0-5.1,0.8-7.2,2.2c-0.3-0.2-0.6-0.5-1-0.7c-1.5-1.1-3.4-2.5-5.3-3.9c-2.6-1.9-7.2-5.2-10.8-7.5c2.3-3.7,9.3-12.8,22.1-12.8
		L610.1,448.1 M610.1,448.1c-17.4,0-24.7,15.4-24.7,15.4c6.3,4,19.8,14,19.8,14.1c2-1.9,4.6-2.7,7.2-2.7c2.5,0,5,0.8,6.9,2.1
		c4.9,3.1,3,13.6,3,13.6c1.6,0.7,3.3,1,5,1c4.2,0,7.9-1.7,7.9-1.7c3.6-5.4,5.5-11.5,5.8-16.4c0.3-10.7-7.1-18.1-16.1-22.1
		C619.3,449,614.4,448.1,610.1,448.1L610.1,448.1z"/>
</g>
</svg>
