<?xml version="1.0" encoding="utf-8"?>
<!-- Generator: Adobe Illustrator 26.2.1, SVG Export Plug-In . SVG Version: 6.00 Build 0)  -->
<svg version="1.1" id="Layer_1" xmlns="http://www.w3.org/2000/svg" xmlns:xlink="http://www.w3.org/1999/xlink" x="0px" y="0px"
	 viewBox="0 0 1250 1250" style="enable-background:new 0 0 1250 1250;" xml:space="preserve">
<style type="text/css">
	.st0{fill:none;stroke:#141414;stroke-width:2;stroke-miterlimit:10;}
	.st1{fill:#141414;}
	.st2{fill:#1450F5;stroke:#141414;stroke-width:2;stroke-miterlimit:10;}
	.st3{fill:none;stroke:#FFFFFF;stroke-miterlimit:10;}
	.st4{fill:#1450F5;stroke:#141414;stroke-width:2;stroke-linejoin:round;stroke-miterlimit:10;}
	.st5{fill:none;stroke:#141414;stroke-width:6;stroke-linejoin:round;stroke-miterlimit:10;}
	.st6{fill:#1450F5;stroke:#141414;stroke-width:2;stroke-linecap:round;stroke-linejoin:round;stroke-miterlimit:10;}
	.st7{fill:none;stroke:#141414;stroke-width:2;stroke-linecap:round;stroke-linejoin:round;stroke-miterlimit:10;}
	.st8{fill:#141414;stroke:#141414;stroke-width:2;stroke-miterlimit:10;}
	.st9{fill:none;stroke:#141414;stroke-width:6;stroke-linecap:round;stroke-linejoin:round;stroke-miterlimit:10;}
	.st10{fill:none;stroke:#141414;stroke-width:6;stroke-miterlimit:10;}
	.st11{fill:none;stroke:#FFEC00;stroke-miterlimit:10;}
	.st12{fill:none;stroke:#141414;stroke-width:6;stroke-linecap:round;stroke-miterlimit:10;}
	.st13{fill:none;}
	.st14{stroke:#141414;stroke-width:2;stroke-miterlimit:10;}
	.st15{fill:#010101;}
	.st16{fill:#010101;stroke:#141414;stroke-width:2;stroke-miterlimit:10;}
	.st17{fill:#FFFFFF;stroke:#141414;stroke-width:2;stroke-miterlimit:10;}
	.st18{fill:none;stroke:#141414;stroke-width:2;stroke-linecap:round;stroke-miterlimit:10;}
	.st19{fill:none;stroke:#141414;stroke-width:2;stroke-linejoin:bevel;stroke-miterlimit:10;}
	.st20{fill:#1450F5;}
	.st21{fill:#FFFFFF;}
	.st22{fill:none;stroke:#141414;stroke-width:3;stroke-linejoin:bevel;stroke-miterlimit:10;}
	.st23{fill:none;stroke:#141414;stroke-width:3;stroke-miterlimit:10;}
	.st24{fill:none;stroke:#141414;stroke-width:3;stroke-linejoin:round;stroke-miterlimit:10;}
</style>
<polyline class="st0" points="589.6,429.1 589.6,394.4 670.3,394.4 670.3,498.9 589.6,498.9 589.6,442.6 "/>
<rect x="615" y="499.2" class="st0" width="80.7" height="104.5"/>
<polyline class="st0" points="589.6,657.1 589.6,603.8 670.3,603.8 670.3,708.3 "/>
<rect x="637.5" y="708.6" class="st0" width="58.2" height="106.6"/>
<line class="st17" x1="629.9" y1="380" x2="629.9" y2="344.5"/>
<g>
	<rect x="605.9" y="381" class="st1" width="48" height="12"/>
	<path class="st1" d="M653,382v10h-46v-10H653 M655,380h-50v14h50V380L655,380z"/>
</g>
<rect x="541.7" y="678.7" class="st0" width="95.8" height="136.6"/>
<path class="st2" d="M582.8,708.3c-0.1-5.4-4.6-9.8-10.1-9.8s-9.9,4.4-10.1,9.8h0v20.1h20.1L582.8,708.3L582.8,708.3z"/>
<path class="st2" d="M615.9,708.3c-0.1-5.4-4.6-9.8-10.1-9.8s-9.9,4.4-10.1,9.8h0v20.1h20.1L615.9,708.3L615.9,708.3z"/>
<path class="st2" d="M582.8,751.3c-0.1-5.4-4.6-9.8-10.1-9.8s-9.9,4.4-10.1,9.8h0v20.1h20.1L582.8,751.3L582.8,751.3z"/>
<path class="st2" d="M615.9,751.3c-0.1-5.4-4.6-9.8-10.1-9.8s-9.9,4.4-10.1,9.8h0v20.1h20.1L615.9,751.3L615.9,751.3z"/>
<path class="st0" d="M599.6,795.1c-0.1-5.4-4.6-9.8-10.1-9.8c-5.5,0-9.9,4.4-10.1,9.8h0v20.1h20.1L599.6,795.1L599.6,795.1z"/>
<polygon class="st0" points="630.5,657.1 548.7,657.1 537.1,678.7 642,678.7 "/>
<g>
	<path class="st0" d="M597,460.2c0-13.6,11-24.6,24.6-24.6c-15.8,0-24.6-11-24.6-24.6c0,13.6-11,24.6-24.6,24.6
		C586,435.6,597,446.6,597,460.2z"/>
</g>
</svg>
